<svg xmlns="http://www.w3.org/2000/svg" xmlns:xlink="http://www.w3.org/1999/xlink" xmlns:lucid="lucid" width="1782" height="1162"><g transform="translate(321 -119)" lucid:page-tab-id="0_0"><path d="M-500 0h2000v1500H-500z" fill="#fff"/><path d="M-320 608.92a6 6 0 0 1 6-6h1768a6 6 0 0 1 6 6V1274a6 6 0 0 1-6 6H-314a6 6 0 0 1-6-6z" stroke="#3a414a" stroke-width="2" fill="#fff"/><path d="M-320 126a6 6 0 0 1 6-6h1768a6 6 0 0 1 6 6v470.92a6 6 0 0 1-6 6H-314a6 6 0 0 1-6-6z" stroke="#3a414a" stroke-width="2" fill="#fff"/><path d="M-291.15 229.75a6 6 0 0 1 6-6h237.98a6 6 0 0 1 6 6v172a6 6 0 0 1-6 6h-237.98a6 6 0 0 1-6-6z" stroke="#3a414a" stroke-width="2" fill="#fff"/><path d="M-291.15 285.06h249.98m-249.98 61.31h249.98" stroke="#3a414a" stroke-width="2" fill="none"/><use xlink:href="#a" transform="matrix(1,0,0,1,-283.1544674629427,231.75) translate(56.990234375 33.64453125)"/><use xlink:href="#b" transform="matrix(1,0,0,1,-279.1544674629427,293.0625) translate(0 33.64453125)"/><use xlink:href="#c" transform="matrix(1,0,0,1,-279.1544674629427,293.0625) translate(48.0078125 33.64453125)"/><path d="M20 242a6 6 0 0 1 6-6h230.96a6 6 0 0 1 6 6v147.5a6 6 0 0 1-6 6H26a6 6 0 0 1-6-6z" stroke="#3a414a" stroke-width="2" fill="#fff"/><use xlink:href="#d" transform="matrix(1,0,0,1,32,248) translate(1.482421875 80.05078125)"/><path d="M332.97 229.75a6 6 0 0 1 6-6h187.2a6 6 0 0 1 6 6v173a6 6 0 0 1-6 6h-187.2a6 6 0 0 1-6-6z" stroke="#3a414a" stroke-width="2" fill="#fff"/><path d="M332.97 285.06h199.2m-199.2 62.06h199.2" stroke="#3a414a" stroke-width="2" fill="none"/><use xlink:href="#e" transform="matrix(1,0,0,1,340.97050128705735,231.75) translate(-4.015625 33.64453125)"/><path d="M602.17 217.25a6 6 0 0 1 6-6H814a6 6 0 0 1 6 6v197a6 6 0 0 1-6 6H608.17a6 6 0 0 1-6-6z" stroke="#3a414a" stroke-width="2" fill="#fff"/><path d="M602.17 272.56H820m-217.83 73.7H820" stroke="#3a414a" stroke-width="2" fill="none"/><use xlink:href="#f" transform="matrix(1,0,0,1,610.1701786157814,219.25) translate(16.986328125 33.64453125)"/><use xlink:href="#b" transform="matrix(1,0,0,1,614.1701786157814,280.5625) translate(0 39.64453125)"/><use xlink:href="#g" transform="matrix(1,0,0,1,614.1701786157814,280.5625) translate(48.0078125 39.64453125)"/><path d="M873.75 257.75a6 6 0 0 1 6-6h221.5a6 6 0 0 1 6 6v116a6 6 0 0 1-6 6h-221.5a6 6 0 0 1-6-6z" stroke="#3a414a" stroke-width="2" fill="#fff"/><use xlink:href="#h" transform="matrix(1,0,0,1,885.7517559745573,263.75) translate(20.986328125 40.48828125)"/><use xlink:href="#i" transform="matrix(1,0,0,1,885.7517559745573,263.75) translate(-3.017578125 85.80078125)"/><path d="M1080 440.33a6 6 0 0 1 6-6h228a6 6 0 0 1 6 6v134a6 6 0 0 1-6 6h-228a6 6 0 0 1-6-6z" fill="none"/><use xlink:href="#j" transform="matrix(1,0,0,1,1080,434.33333333333337) translate(23.90625 62.375)"/><use xlink:href="#k" transform="matrix(1,0,0,1,1080,434.33333333333337) translate(55.79427083333334 126.90625)"/><path d="M-291.15 646a6 6 0 0 1 6-6h237.98a6 6 0 0 1 6 6v263a6 6 0 0 1-6 6h-237.98a6 6 0 0 1-6-6z" stroke="#3a414a" stroke-width="2" fill="#fff"/><path d="M-291.15 701.3h249.98m-249.98 61.33h249.98" stroke="#3a414a" stroke-width="2" fill="none"/><use xlink:href="#a" transform="matrix(1,0,0,1,-283.1544674629427,648) translate(56.990234375 33.64453125)"/><use xlink:href="#b" transform="matrix(1,0,0,1,-279.1544674629427,770.625) translate(0 33.33203125)"/><use xlink:href="#l" transform="matrix(1,0,0,1,-279.1544674629427,770.625) translate(48.0078125 33.33203125)"/><use xlink:href="#b" transform="matrix(1,0,0,1,-279.1544674629427,770.625) translate(0 78.64453125)"/><use xlink:href="#m" transform="matrix(1,0,0,1,-279.1544674629427,770.625) translate(48.0078125 78.64453125)"/><use xlink:href="#b" transform="matrix(1,0,0,1,-279.1544674629427,770.625) translate(0 123.95703125)"/><use xlink:href="#n" transform="matrix(1,0,0,1,-279.1544674629427,770.625) translate(48.0078125 123.95703125)"/><path d="M20 704.23a6 6 0 0 1 6-6h230.96a6 6 0 0 1 6 6v146.54a6 6 0 0 1-6 6H26a6 6 0 0 1-6-6z" stroke="#3a414a" stroke-width="2" fill="#fff"/><use xlink:href="#d" transform="matrix(1,0,0,1,32,710.2291666666667) translate(1.482421875 79.70703125)"/><path d="M332.56 691.5a6 6 0 0 1 6-6h187.6a6 6 0 0 1 6 6v172a6 6 0 0 1-6 6h-187.6a6 6 0 0 1-6-6z" stroke="#3a414a" stroke-width="2" fill="#fff"/><path d="M332.56 746.8h199.6m-199.6 61.33h199.6" stroke="#3a414a" stroke-width="2" fill="none"/><use xlink:href="#e" transform="matrix(1,0,0,1,340.5642528495573,693.5) translate(-4.015625 33.64453125)"/><path d="M265.96 777.5h28.6" stroke="#3a414a" stroke-width="4" fill="none"/><path d="M266 779.48h-2.04v-3.96H266z" stroke="#3a414a" stroke-width=".05" fill="#3a414a"/><path d="M325.1 777.5l-28.54 9.27v-18.54z" stroke="#3a414a" stroke-width="4" fill="#3a414a"/><path d="M873.75 716.13a6 6 0 0 1 6-6h221.5a6 6 0 0 1 6 6v122.75a6 6 0 0 1-6 6h-221.5a6 6 0 0 1-6-6z" stroke="#3a414a" stroke-width="2" fill="#fff"/><use xlink:href="#h" transform="matrix(1,0,0,1,885.7517559745573,722.125) translate(20.986328125 43.48828125)"/><use xlink:href="#i" transform="matrix(1,0,0,1,885.7517559745573,722.125) translate(-3.017578125 88.80078125)"/><path d="M1080 1106a6 6 0 0 1 6-6h228a6 6 0 0 1 6 6v134a6 6 0 0 1-6 6h-228a6 6 0 0 1-6-6z" fill="none"/><use xlink:href="#j" transform="matrix(1,0,0,1,1080,1100) translate(23.90625 62.375)"/><use xlink:href="#o" transform="matrix(1,0,0,1,1080,1100) translate(40.26041666666666 126.90625)"/><path d="M-120 941.88a6 6 0 0 1 6-6H52.83a6 6 0 0 1 6 6v29.08a6 6 0 0 1-6 6H-114a6 6 0 0 1-6-6z" fill="none"/><use xlink:href="#p" transform="matrix(1,0,0,1,-120,935.8749999999999) translate(-30.51953125 33.30078125)"/><path d="M-166.16 410.75V544a6 6 0 0 0 6 6H984.5a6 6 0 0 0 6-6V417.75" stroke="#3a414a" stroke-width="4" fill="none"/><path d="M-164.2 410.8h-3.94v-2.05h3.95z" stroke="#3a414a" stroke-width=".05" fill="#3a414a"/><path d="M990.5 387.22l9.27 28.53h-18.54z" stroke="#3a414a" stroke-width="4" fill="#3a414a"/><path d="M-195.05 1086a6 6 0 0 1 6-6h168a6 6 0 0 1 6 6v172a6 6 0 0 1-6 6h-168a6 6 0 0 1-6-6z" stroke="#3a414a" stroke-width="2" fill="#fff"/><path d="M-195.05 1141.3h180m-180 61.33h180" stroke="#3a414a" stroke-width="2" fill="none"/><use xlink:href="#a" transform="matrix(1,0,0,1,-187.05290726181343,1088) translate(21.990234375 33.64453125)"/><path d="M-166.16 918v32a6 6 0 0 1-6 6H-264a6 6 0 0 0-6 6v204a6 6 0 0 0 6 6h30.94" stroke="#3a414a" stroke-width="4" fill="none"/><path d="M-164.2 918.05h-3.94V916h3.95z" stroke="#3a414a" stroke-width=".05" fill="#3a414a"/><path d="M-202.53 1172l-28.53 9.27v-18.54z" stroke="#3a414a" stroke-width="4" fill="#3a414a"/><path d="M-120 1003.83a6 6 0 0 1 6-6H54.08a6 6 0 0 1 6 6v29.1a6 6 0 0 1-6 6H-114a6 6 0 0 1-6-6z" fill="none"/><use xlink:href="#q" transform="matrix(1,0,0,1,-120,997.8333333333331) translate(-65.525390625 33.30078125)"/><path d="M-12.05 1172h147.53a6 6 0 0 0 6-6V894.77" stroke="#3a414a" stroke-width="4" fill="none"/><path d="M-12 1173.97h-2.05v-3.94H-12z" stroke="#3a414a" stroke-width=".05" fill="#3a414a"/><path d="M141.48 864.24l9.27 28.53H132.2z" stroke="#3a414a" stroke-width="4" fill="#3a414a"/><path d="M-12.05 1172H984.5a6 6 0 0 0 6-6V882.88" stroke="#3a414a" stroke-width="4" fill="none"/><path d="M-12 1173.97h-2.05v-3.94H-12z" stroke="#3a414a" stroke-width=".05" fill="#3a414a"/><path d="M990.5 852.35l9.27 28.53h-18.54z" stroke="#3a414a" stroke-width="4" fill="#3a414a"/><path d="M500 977.58a6 6 0 0 1 6-6h166.83a6 6 0 0 1 6 6v48a6 6 0 0 1-6 6H506a6 6 0 0 1-6-6z" fill="none"/><use xlink:href="#r" transform="matrix(1,0,0,1,500,971.5833333333333) translate(-66.525390625 40.64453125)"/><path d="M535.16 316.25h29.5" stroke="#3a414a" stroke-width="4" fill="none"/><path d="M535.2 318.23h-2.04v-3.96h2.05z" stroke="#3a414a" stroke-width=".05" fill="#3a414a"/><path d="M594.7 315.84l-28.4 9.66-.26-18.54z" stroke="#3a414a" stroke-width="4" fill="#3a414a"/><path d="M1160 229.75a6 6 0 0 1 6-6h248a6 6 0 0 1 6 6v172a6 6 0 0 1-6 6h-248a6 6 0 0 1-6-6z" stroke="#3a414a" stroke-width="2" fill="#fff"/><path d="M1160 285.06h260m-260 61.31h260" stroke="#3a414a" stroke-width="2" fill="none"/><use xlink:href="#s" transform="matrix(1,0,0,1,1168,231.75) translate(25.984375 33.64453125)"/><path d="M592.37 681.75a6 6 0 0 1 6-6h168a6 6 0 0 1 6 6v172a6 6 0 0 1-6 6h-168a6 6 0 0 1-6-6z" stroke="#3a414a" stroke-width="2" fill="#fff"/><path d="M592.37 737.06h180m-180 61.32h180" stroke="#3a414a" stroke-width="2" fill="none"/><use xlink:href="#a" transform="matrix(1,0,0,1,600.3715593599741,683.75) translate(21.990234375 33.64453125)"/><path d="M613.54 693.25a6 6 0 0 1 6-6h168a6 6 0 0 1 6 6v172a6 6 0 0 1-6 6h-168a6 6 0 0 1-6-6z" stroke="#3a414a" stroke-width="2" fill="#fff"/><path d="M613.54 748.56h180m-180 61.32h180" stroke="#3a414a" stroke-width="2" fill="none"/><use xlink:href="#a" transform="matrix(1,0,0,1,621.5382010266408,695.25) translate(21.990234375 33.64453125)"/><path d="M633.54 701.25a6 6 0 0 1 6-6h168a6 6 0 0 1 6 6v172a6 6 0 0 1-6 6h-168a6 6 0 0 1-6-6z" stroke="#3a414a" stroke-width="2" fill="#fff"/><path d="M633.54 756.56h180m-180 61.32h180" stroke="#3a414a" stroke-width="2" fill="none"/><use xlink:href="#a" transform="matrix(1,0,0,1,641.5382010266408,703.25) translate(21.990234375 33.64453125)"/><path d="M823 315.75h12.75" stroke="#3a414a" stroke-width="4" fill="none"/><path d="M823.05 317.73H821v-3.96h2.05z" stroke="#3a414a" stroke-width=".05" fill="#3a414a"/><path d="M866.28 315.75l-28.53 9.27v-18.54z" stroke="#3a414a" stroke-width="4" fill="#3a414a"/><path d="M1110.25 315.75H1122" stroke="#3a414a" stroke-width="4" fill="none"/><path d="M1110.3 317.73h-2.05v-3.96h2.05z" stroke="#3a414a" stroke-width=".05" fill="#3a414a"/><path d="M1152.53 315.75l-28.53 9.27v-18.54z" stroke="#3a414a" stroke-width="4" fill="#3a414a"/><path d="M816.54 787.25h19.2" stroke="#3a414a" stroke-width="4" fill="none"/><path d="M816.6 785.28v3.95h-2.06v-3.96z" stroke="#3a414a" stroke-width=".05" fill="#3a414a"/><path d="M866.28 787.26l-28.53 9.27V778z" stroke="#3a414a" stroke-width="4" fill="#3a414a"/><path d="M1160 690.5a6 6 0 0 1 6-6h248a6 6 0 0 1 6 6v174a6 6 0 0 1-6 6h-248a6 6 0 0 1-6-6z" stroke="#3a414a" stroke-width="2" fill="#fff"/><path d="M1160 745.8h260M1160 808h260" stroke="#3a414a" stroke-width="2" fill="none"/><use xlink:href="#s" transform="matrix(1,0,0,1,1168,692.5) translate(25.984375 33.64453125)"/><path d="M1110.25 777.5H1122" stroke="#3a414a" stroke-width="4" fill="none"/><path d="M1110.3 779.48h-2.05v-3.96h2.05z" stroke="#3a414a" stroke-width=".05" fill="#3a414a"/><path d="M1152.53 777.5l-28.53 9.27v-18.54z" stroke="#3a414a" stroke-width="4" fill="#3a414a"/><path d="M-38.17 777.5H-18" stroke="#3a414a" stroke-width="4" fill="none"/><path d="M-38.12 779.48h-2.05v-3.96h2.05z" stroke="#3a414a" stroke-width=".05" fill="#3a414a"/><path d="M12.53 777.5L-16 786.77v-18.54z" stroke="#3a414a" stroke-width="4" fill="#3a414a"/><path d="M-38.17 315.75H-18" stroke="#3a414a" stroke-width="4" fill="none"/><path d="M-38.12 317.73h-2.05v-3.96h2.05z" stroke="#3a414a" stroke-width=".05" fill="#3a414a"/><path d="M12.53 315.75L-16 325.02v-18.54z" stroke="#3a414a" stroke-width="4" fill="#3a414a"/><path d="M265.96 315.76l29 .22" stroke="#3a414a" stroke-width="4" fill="none"/><path d="M266.02 313.8l-.02 3.94h-2.04v-3.97z" stroke="#3a414a" stroke-width=".05" fill="#3a414a"/><path d="M325.5 316.2l-28.6 9.06.14-18.54z" stroke="#3a414a" stroke-width="4" fill="#3a414a"/><path d="M821.5 315.75h34.87" stroke="#3a414a" fill="none"/><path d="M821.5 316.23h-.5v-.96h.5z" stroke="#3a414a" stroke-width=".05" fill="#3a414a"/><path d="M871.13 315.75l-14.26 4.63v-9.26z" stroke="#3a414a" fill="#3a414a"/><path d="M432.36 872.5V950a6 6 0 0 0 6 6h279.18a6 6 0 0 0 6-6v-25.6" stroke="#3a414a" stroke-width="4" fill="none"/><path d="M434.34 872.55h-3.95v-2.05h3.94z" stroke="#3a414a" stroke-width=".05" fill="#3a414a"/><path d="M723.54 886.72l11.6 35.67h-23.2z" stroke="#3a414a" stroke-width="4" fill="#3a414a"/><defs><path d="M614-1226c-167 1-283 53-283 213 0 183 186 193 334 234 230 63 463 120 463 409 0 286-219 387-518 390C309 23 131-98 79-338l185-37c34 165 149 248 351 246 184-2 324-58 324-238 0-203-207-221-372-266-210-57-422-111-422-377 0-267 201-356 470-360 279-5 430 101 480 324l-188 33c-28-141-121-215-293-213" id="t"/><path d="M615-1102c343 0 484 203 482 560-1 347-147 562-488 562-336 0-475-219-479-562-4-349 156-560 485-560zm-8 989c240 0 301-180 301-429 0-245-55-427-290-427-236 0-299 181-299 427 0 243 61 429 288 429" id="u"/><path d="M528 20c-247 0-343-132-343-381v-721h180v686c-4 177 45 284 224 277 194-8 279-136 279-336v-627h181c3 360-6 732 6 1082H885c-4-54-7-126-8-185h-3C809-64 714 20 528 20" id="v"/><path d="M706-1102c241 0 344 136 343 381V0H868v-695c1-168-57-273-220-268-190 6-283 138-283 336V0H185c-3-360 6-732-6-1082h170c4 54 7 126 8 185h3c63-121 164-204 346-205" id="w"/><path d="M865-914c-3-187-2-380-2-570h180v1261c0 76 1 155 6 223H877c-8-49-9-116-10-174h-5C801-44 708 26 530 26c-135 0-234-46-297-139s-95-232-95-419c0-377 131-566 392-566 176 0 271 63 335 184zm-286-51c-222 0-255 197-255 427 0 229 31 425 253 425 237 0 286-195 286-441 0-238-52-411-284-411" id="x"/><g id="a"><use transform="matrix(0.01953125,0,0,0.01953125,0,0)" xlink:href="#t"/><use transform="matrix(0.01953125,0,0,0.01953125,24.00390625,0)" xlink:href="#u"/><use transform="matrix(0.01953125,0,0,0.01953125,48.0078125,0)" xlink:href="#v"/><use transform="matrix(0.01953125,0,0,0.01953125,72.01171875,0)" xlink:href="#w"/><use transform="matrix(0.01953125,0,0,0.01953125,96.015625,0)" xlink:href="#x"/></g><path d="M687-608v428H540v-428H116v-146h424v-428h147v428h424v146H687" id="y"/><use transform="matrix(0.01953125,0,0,0.01953125,0,0)" xlink:href="#y" id="b"/><path d="M698-1104c312 3 392 244 392 558 0 315-82 566-392 566-169 0-277-65-331-184h-5c8 188 2 394 4 589H185V-858c0-76-1-156-6-224h175c6 52 9 120 10 178h4c58-122 150-202 330-200zm-49 991c225 0 255-203 255-433 0-225-32-419-253-419-236 0-285 192-285 441 0 237 53 411 283 411" id="z"/><path d="M1000-272c3 95 12 159 101 161 21 0 41-3 59-7V-6c-44 10-86 16-139 16-141 2-191-84-197-217h-6C748-76 648 20 446 20c-207 0-318-120-318-322 0-266 194-348 454-354l236-4c12-191-40-305-222-305-140 0-220 47-232 172l-188-17c33-204 181-292 423-292 255 0 401 118 401 364v466zm-683-27c0 109 63 184 175 182 166-3 259-96 306-217 24-65 20-120 20-200-232 7-501-28-501 235" id="A"/><path d="M682 16c-209 0-323-80-324-285v-671H190v-142h170l58-282h120v282h432v142H538v652c2 114 60 155 182 155 106 0 209-16 297-34v137C921-4 806 16 682 16" id="B"/><path d="M648-963c-190 6-283 138-283 336V0H185v-1484h181c-2 197 6 404-9 587h3c62-120 159-205 339-205 242 0 351 135 350 381V0H868v-695c1-168-57-273-220-268" id="C"/><g id="c"><use transform="matrix(0.01953125,0,0,0.01953125,0,0)" xlink:href="#z"/><use transform="matrix(0.01953125,0,0,0.01953125,24.00390625,0)" xlink:href="#A"/><use transform="matrix(0.01953125,0,0,0.01953125,48.0078125,0)" xlink:href="#B"/><use transform="matrix(0.01953125,0,0,0.01953125,72.01171875,0)" xlink:href="#C"/></g><path d="M617-1102c355 0 481 238 477 599H322c5 222 84 388 301 388 144 0 244-59 284-166l158 45C1002-72 854 20 623 20c-342 0-490-220-490-568 0-346 151-554 484-554zm291 461c-18-192-90-328-289-328-194 0-287 128-295 328h584" id="D"/><path d="M1048-32c-2 300-135 456-433 456-222-1-358-88-400-267l184-25c22 99 100 157 222 156 184-2 248-125 248-315 0-64 3-133-2-194C807-100 706-13 524-12c-306 0-381-228-381-537 0-318 85-550 400-550 164 0 271 83 325 202h3c1-60 3-134 12-185h171c-13 339-4 702-6 1050zM585-145c210-8 284-178 284-406 0-192-52-331-177-392-33-16-69-22-104-22-223 2-259 184-259 414 0 229 31 415 256 406" id="E"/><path d="M904-1102c199 0 220 177 220 381V0H956v-686c-3-114 0-215-60-264-70-33-125-4-158 71-26 56-39 140-39 252V0H531v-686c-3-114-1-215-61-264-78-41-136 24-157 84-24 69-39 159-39 259V0H105c-3-360 6-732-6-1082h149c6 50 3 123 8 175 36-100 83-195 216-195 135 0 166 79 196 196 42-105 93-196 236-196" id="F"/><path d="M839-1102c70 0 148 7 206 17v167c-112-18-268-36-363 15-129 69-208 203-208 395V0H294c-10-367 32-789-52-1082h171c21 75 41 161 48 250h5c67-152 152-270 373-270" id="G"/><g id="d"><use transform="matrix(0.01953125,0,0,0.01953125,0,0)" xlink:href="#t"/><use transform="matrix(0.01953125,0,0,0.01953125,24.00390625,0)" xlink:href="#D"/><use transform="matrix(0.01953125,0,0,0.01953125,48.0078125,0)" xlink:href="#E"/><use transform="matrix(0.01953125,0,0,0.01953125,72.01171875,0)" xlink:href="#F"/><use transform="matrix(0.01953125,0,0,0.01953125,96.015625,0)" xlink:href="#D"/><use transform="matrix(0.01953125,0,0,0.01953125,120.01953125,0)" xlink:href="#w"/><use transform="matrix(0.01953125,0,0,0.01953125,144.0234375,0)" xlink:href="#B"/><use transform="matrix(0.01953125,0,0,0.01953125,168.02734375,0)" xlink:href="#D"/><use transform="matrix(0.01953125,0,0,0.01953125,192.03125,0)" xlink:href="#G"/></g><path d="M873-819c-18-114-119-146-250-146-163 0-245 50-245 151 0 151 170 148 294 185 182 54 388 94 388 320 0 240-189 325-439 329-245 4-410-69-454-268l159-31c24 133 136 168 295 165 144-2 270-31 270-171 0-164-195-160-331-202-167-52-350-87-350-299 0-218 173-315 413-313 220 2 373 77 412 260" id="H"/><g id="e"><use transform="matrix(0.01953125,0,0,0.01953125,0,0)" xlink:href="#t"/><use transform="matrix(0.01953125,0,0,0.01953125,24.00390625,0)" xlink:href="#D"/><use transform="matrix(0.01953125,0,0,0.01953125,48.0078125,0)" xlink:href="#E"/><use transform="matrix(0.01953125,0,0,0.01953125,72.01171875,0)" xlink:href="#F"/><use transform="matrix(0.01953125,0,0,0.01953125,96.015625,0)" xlink:href="#D"/><use transform="matrix(0.01953125,0,0,0.01953125,120.01953125,0)" xlink:href="#w"/><use transform="matrix(0.01953125,0,0,0.01953125,144.0234375,0)" xlink:href="#B"/><use transform="matrix(0.01953125,0,0,0.01953125,168.02734375,0)" xlink:href="#H"/></g><g id="f"><use transform="matrix(0.01953125,0,0,0.01953125,0,0)" xlink:href="#t"/><use transform="matrix(0.01953125,0,0,0.01953125,24.00390625,0)" xlink:href="#D"/><use transform="matrix(0.01953125,0,0,0.01953125,48.0078125,0)" xlink:href="#E"/><use transform="matrix(0.01953125,0,0,0.01953125,72.01171875,0)" xlink:href="#F"/><use transform="matrix(0.01953125,0,0,0.01953125,96.015625,0)" xlink:href="#D"/><use transform="matrix(0.01953125,0,0,0.01953125,120.01953125,0)" xlink:href="#w"/><use transform="matrix(0.01953125,0,0,0.01953125,144.0234375,0)" xlink:href="#B"/></g><g id="g"><use transform="matrix(0.01953125,0,0,0.01953125,0,0)" xlink:href="#H"/><use transform="matrix(0.01953125,0,0,0.01953125,24.00390625,0)" xlink:href="#u"/><use transform="matrix(0.01953125,0,0,0.01953125,48.0078125,0)" xlink:href="#v"/><use transform="matrix(0.01953125,0,0,0.01953125,72.01171875,0)" xlink:href="#w"/><use transform="matrix(0.01953125,0,0,0.01953125,96.015625,0)" xlink:href="#x"/></g><path d="M385-1193v494h676v158H385V0H194v-1349h891v156H385" id="I"/><g id="h"><use transform="matrix(0.01953125,0,0,0.01953125,0,0)" xlink:href="#I"/><use transform="matrix(0.01953125,0,0,0.01953125,24.00390625,0)" xlink:href="#D"/><use transform="matrix(0.01953125,0,0,0.01953125,48.0078125,0)" xlink:href="#A"/><use transform="matrix(0.01953125,0,0,0.01953125,72.01171875,0)" xlink:href="#B"/><use transform="matrix(0.01953125,0,0,0.01953125,96.015625,0)" xlink:href="#v"/><use transform="matrix(0.01953125,0,0,0.01953125,120.01953125,0)" xlink:href="#G"/><use transform="matrix(0.01953125,0,0,0.01953125,144.0234375,0)" xlink:href="#D"/></g><path d="M162 0v-1349h919v156H353v422h668v154H353v461h769V0H162" id="J"/><path d="M932 0L611-444 288 0H94l415-556-397-526h199l300 421 298-421h201L713-558 1133 0H932" id="K"/><path d="M631 20c-350 0-501-215-501-562 0-355 162-560 502-560 250 0 399 118 446 323l-192 14c-23-124-109-196-262-196-242 0-305 171-305 415 1 245 61 427 304 427 151 0 248-77 267-215l190 12C1039-107 883 20 631 20" id="L"/><g id="i"><use transform="matrix(0.01953125,0,0,0.01953125,0,0)" xlink:href="#J"/><use transform="matrix(0.01953125,0,0,0.01953125,24.00390625,0)" xlink:href="#K"/><use transform="matrix(0.01953125,0,0,0.01953125,48.0078125,0)" xlink:href="#B"/><use transform="matrix(0.01953125,0,0,0.01953125,72.01171875,0)" xlink:href="#G"/><use transform="matrix(0.01953125,0,0,0.01953125,96.015625,0)" xlink:href="#A"/><use transform="matrix(0.01953125,0,0,0.01953125,120.01953125,0)" xlink:href="#L"/><use transform="matrix(0.01953125,0,0,0.01953125,144.0234375,0)" xlink:href="#B"/><use transform="matrix(0.01953125,0,0,0.01953125,168.02734375,0)" xlink:href="#u"/><use transform="matrix(0.01953125,0,0,0.01953125,192.03125,0)" xlink:href="#G"/></g><path d="M925-1365c52 0 103 46 101 97 0 23-38 113-113 270-125 261-227 519-304 774-21 71-38 117-49 139-29 57-63 85-104 85-109-1-156-321-181-456-30-165-184-659-203-805-7-52 44-104 97-104 40 0 72 25 99 73 46 84 66 250 92 370 23 106 68 262 121 471 71-167 173-418 306-754 20-51 35-86 46-104 25-37 55-56 92-56" id="M"/><path d="M609-1364c323 0 519 229 519 557 0 183-51 357-152 522C860-95 716 0 544 0 271 0 97-283 97-570c0-191 38-362 113-512 95-188 228-282 399-282zm319 550c0-231-116-347-349-347-81 0-151 81-210 243-48 132-72 248-72 348 0 161 47 272 142 333 35 23 69 34 100 34 113 0 208-76 287-229 68-131 102-258 102-382" id="N"/><path d="M773-362c52-3 103 50 103 101 0 27-17 56-48 89C762-102 548 0 418 0 210 0 81-204 84-422c3-221 73-486 152-640 103-201 220-303 358-303 167 0 251 128 251 385 0 123-35 185-106 185-48 0-101-46-99-94 2-77 27-278-39-278-46 0-94 47-150 138-89 144-168 415-168 602 0 146 56 219 169 219 46 0 106-26 180-77s122-77 141-77" id="O"/><path d="M922-654c-9 182 20 369 29 555 5 90-140 139-183 58-2-3-13-31-31-85-54-160-191-263-414-306-19 75-30 243-58 360-12 50-51 72-98 72-55 0-99-53-99-108 1-366 195-896 360-1117 69-92 141-140 222-140 182 0 273 207 273 621 0 19 1 49-1 90zM724-476v-400c-20-103-13-145-35-225-11-40-25-60-40-60-32 0-83 65-154 195-56 103-99 215-130 336 137 27 256 79 359 154" id="P"/><path d="M759-451c68-46 151 19 151 87 0 27-17 54-48 86C767-182 491 0 329 0 186 0 114-109 114-326c0-169 46-507 46-695 0-139-8-341 120-344 53-2 103 46 101 99-4-2-27 472-40 636-16 198-27 312-27 343 0 57 11 86 32 86 61 0 169-62 325-185 19-16 49-38 88-65" id="Q"/><path d="M488-1365c273 0 550 113 550 360 0 140-81 265-244 374-130 87-276 146-439 180-8 56-16 299-32 372-12 53-47 79-94 79-53 0-99-48-99-101 0-200 54-864 49-1044-37-23-56-56-56-99 0-39 25-69 73-90s145-31 292-31zm348 355c0-132-280-161-454-151-1 136-1 303-1 501 100-31 192-72 276-122 119-70 179-146 179-228" id="R"/><path d="M534 0c-54 1-104-40-104-96 0-45 18-79 58-93 38-13 78-19 114-33 139-52 207-229 207-522-71 158-178 237-321 237-171 0-289-87-355-261-43-114-65-273-65-478 0-79 34-119 101-119 58 0 96 44 106 134 10 91 12 183 22 275 13 113 52 188 113 226 57 35 92 27 153-4 115-60 203-251 231-413 5-26 9-65 25-113s51-71 94-71c48 0 84 32 102 97 48 177 15 638-17 760-49 186-136 325-271 414C667-20 603 0 534 0" id="S"/><g id="j"><use transform="matrix(0.026041666666666668,0,0,0.026041666666666668,0,0)" xlink:href="#M"/><use transform="matrix(0.026041666666666668,0,0,0.026041666666666668,26.119791666666668,0)" xlink:href="#N"/><use transform="matrix(0.026041666666666668,0,0,0.026041666666666668,57.890625,0)" xlink:href="#O"/><use transform="matrix(0.026041666666666668,0,0,0.026041666666666668,83.09895833333334,0)" xlink:href="#P"/><use transform="matrix(0.026041666666666668,0,0,0.026041666666666668,110.91145833333334,0)" xlink:href="#Q"/><use transform="matrix(0.026041666666666668,0,0,0.026041666666666668,134.765625,0)" xlink:href="#R"/><use transform="matrix(0.026041666666666668,0,0,0.026041666666666668,162.36979166666666,0)" xlink:href="#S"/></g><path d="M666-1365c326 0 518 259 518 595 0 178-48 346-145 502C928-89 788 0 621 0 344 0 200-283 200-582c0-169 35-333 107-490 89-196 210-293 359-293zM401-582c0 173 76 381 229 381 86 0 168-71 247-214 71-127 106-239 106-334 0-219-129-422-336-417-153 61-246 349-246 584" id="T"/><path d="M137-119c0-58 89-135 145-135 71 0 107 42 107 126C389-63 336 0 270 0c-63 0-133-55-133-119" id="U"/><path d="M592-1365c194 7 272 184 272 399 0 120-87 574-93 628-13 114-25 181-30 201C717-46 678 0 625 0c-48 0-101-44-101-92 0-132 51-296 78-415C319-461 53-614 53-877c0-222 314-496 539-488zm-32 194c-138-8-294 169-294 307 0 106 68 159 203 159 53 0 111-8 174-25 14-93 21-185 21-277 1-103-17-159-104-164" id="V"/><g id="k"><use transform="matrix(0.026041666666666668,0,0,0.026041666666666668,0,0)" xlink:href="#T"/><use transform="matrix(0.026041666666666668,0,0,0.026041666666666668,36.09375,0)" xlink:href="#U"/><use transform="matrix(0.026041666666666668,0,0,0.026041666666666668,50.755208333333336,0)" xlink:href="#V"/><use transform="matrix(0.026041666666666668,0,0,0.026041666666666668,77.65625,0)" xlink:href="#U"/><use transform="matrix(0.026041666666666668,0,0,0.026041666666666668,92.31770833333333,0)" xlink:href="#T"/></g><g id="l"><use transform="matrix(0.01953125,0,0,0.01953125,0,0)" xlink:href="#H"/><use transform="matrix(0.01953125,0,0,0.01953125,24.00390625,0)" xlink:href="#D"/><use transform="matrix(0.01953125,0,0,0.01953125,48.0078125,0)" xlink:href="#E"/><use transform="matrix(0.01953125,0,0,0.01953125,72.01171875,0)" xlink:href="#F"/><use transform="matrix(0.01953125,0,0,0.01953125,96.015625,0)" xlink:href="#D"/><use transform="matrix(0.01953125,0,0,0.01953125,120.01953125,0)" xlink:href="#w"/><use transform="matrix(0.01953125,0,0,0.01953125,144.0234375,0)" xlink:href="#B"/></g><path d="M736-142h380V0H134v-142h422v-1200H267v-142h469v1342" id="W"/><path d="M745-142h380V0H143v-142h422v-798H246v-142h499v940zM545-1292v-192h200v192H545" id="X"/><g id="m"><use transform="matrix(0.01953125,0,0,0.01953125,0,0)" xlink:href="#L"/><use transform="matrix(0.01953125,0,0,0.01953125,24.00390625,0)" xlink:href="#W"/><use transform="matrix(0.01953125,0,0,0.01953125,48.0078125,0)" xlink:href="#X"/><use transform="matrix(0.01953125,0,0,0.01953125,72.01171875,0)" xlink:href="#z"/></g><path d="M-5 220v-96h1238v96H-5" id="Y"/><g id="n"><use transform="matrix(0.01953125,0,0,0.01953125,0,0)" xlink:href="#B"/><use transform="matrix(0.01953125,0,0,0.01953125,24.00390625,0)" xlink:href="#u"/><use transform="matrix(0.01953125,0,0,0.01953125,48.0078125,0)" xlink:href="#Y"/><use transform="matrix(0.01953125,0,0,0.01953125,72.01171875,0)" xlink:href="#F"/><use transform="matrix(0.01953125,0,0,0.01953125,96.015625,0)" xlink:href="#u"/><use transform="matrix(0.01953125,0,0,0.01953125,120.01953125,0)" xlink:href="#w"/><use transform="matrix(0.01953125,0,0,0.01953125,144.0234375,0)" xlink:href="#u"/></g><path d="M295-1038c-53 2-99-46-99-99 0-31 18-59 51-87 37-32 224-141 280-141 69 0 104 33 104 99v735c-33 116-21 386-54 459-21 48-54 72-99 72-64 1-108-57-94-125 18-88 24-194 24-317 1 31 2-75 2-317v-328c-50 33-88 49-115 49" id="Z"/><g id="o"><use transform="matrix(0.026041666666666668,0,0,0.026041666666666668,0,0)" xlink:href="#T"/><use transform="matrix(0.026041666666666668,0,0,0.026041666666666668,36.09375,0)" xlink:href="#U"/><use transform="matrix(0.026041666666666668,0,0,0.026041666666666668,50.755208333333336,0)" xlink:href="#Z"/><use transform="matrix(0.026041666666666668,0,0,0.026041666666666668,72.63020833333334,0)" xlink:href="#T"/><use transform="matrix(0.026041666666666668,0,0,0.026041666666666668,108.72395833333334,0)" xlink:href="#U"/><use transform="matrix(0.026041666666666668,0,0,0.026041666666666668,123.38541666666667,0)" xlink:href="#T"/></g><path d="M496 0v-299h235V0H496" id="aa"/><g id="p"><use transform="matrix(0.01953125,0,0,0.01953125,0,0)" xlink:href="#t"/><use transform="matrix(0.01953125,0,0,0.01953125,24.00390625,0)" xlink:href="#u"/><use transform="matrix(0.01953125,0,0,0.01953125,48.0078125,0)" xlink:href="#v"/><use transform="matrix(0.01953125,0,0,0.01953125,72.01171875,0)" xlink:href="#w"/><use transform="matrix(0.01953125,0,0,0.01953125,96.015625,0)" xlink:href="#x"/><use transform="matrix(0.01953125,0,0,0.01953125,120.01953125,0)" xlink:href="#aa"/><use transform="matrix(0.01953125,0,0,0.01953125,144.0234375,0)" xlink:href="#L"/><use transform="matrix(0.01953125,0,0,0.01953125,168.02734375,0)" xlink:href="#W"/><use transform="matrix(0.01953125,0,0,0.01953125,192.03125,0)" xlink:href="#X"/><use transform="matrix(0.01953125,0,0,0.01953125,216.03515625,0)" xlink:href="#z"/></g><g id="q"><use transform="matrix(0.01953125,0,0,0.01953125,0,0)" xlink:href="#t"/><use transform="matrix(0.01953125,0,0,0.01953125,24.00390625,0)" xlink:href="#u"/><use transform="matrix(0.01953125,0,0,0.01953125,48.0078125,0)" xlink:href="#v"/><use transform="matrix(0.01953125,0,0,0.01953125,72.01171875,0)" xlink:href="#w"/><use transform="matrix(0.01953125,0,0,0.01953125,96.015625,0)" xlink:href="#x"/><use transform="matrix(0.01953125,0,0,0.01953125,120.01953125,0)" xlink:href="#aa"/><use transform="matrix(0.01953125,0,0,0.01953125,144.0234375,0)" xlink:href="#B"/><use transform="matrix(0.01953125,0,0,0.01953125,168.02734375,0)" xlink:href="#u"/><use transform="matrix(0.01953125,0,0,0.01953125,192.03125,0)" xlink:href="#Y"/><use transform="matrix(0.01953125,0,0,0.01953125,216.03515625,0)" xlink:href="#F"/><use transform="matrix(0.01953125,0,0,0.01953125,240.0390625,0)" xlink:href="#u"/><use transform="matrix(0.01953125,0,0,0.01953125,264.04296875,0)" xlink:href="#w"/><use transform="matrix(0.01953125,0,0,0.01953125,288.046875,0)" xlink:href="#u"/></g><g id="r"><use transform="matrix(0.01953125,0,0,0.01953125,0,0)" xlink:href="#t"/><use transform="matrix(0.01953125,0,0,0.01953125,24.00390625,0)" xlink:href="#u"/><use transform="matrix(0.01953125,0,0,0.01953125,48.0078125,0)" xlink:href="#v"/><use transform="matrix(0.01953125,0,0,0.01953125,72.01171875,0)" xlink:href="#w"/><use transform="matrix(0.01953125,0,0,0.01953125,96.015625,0)" xlink:href="#x"/><use transform="matrix(0.01953125,0,0,0.01953125,120.01953125,0)" xlink:href="#aa"/><use transform="matrix(0.01953125,0,0,0.01953125,144.0234375,0)" xlink:href="#H"/><use transform="matrix(0.01953125,0,0,0.01953125,168.02734375,0)" xlink:href="#D"/><use transform="matrix(0.01953125,0,0,0.01953125,192.03125,0)" xlink:href="#E"/><use transform="matrix(0.01953125,0,0,0.01953125,216.03515625,0)" xlink:href="#F"/><use transform="matrix(0.01953125,0,0,0.01953125,240.0390625,0)" xlink:href="#D"/><use transform="matrix(0.01953125,0,0,0.01953125,264.04296875,0)" xlink:href="#w"/><use transform="matrix(0.01953125,0,0,0.01953125,288.046875,0)" xlink:href="#B"/></g><g id="s"><use transform="matrix(0.01953125,0,0,0.01953125,0,0)" xlink:href="#I"/><use transform="matrix(0.01953125,0,0,0.01953125,24.00390625,0)" xlink:href="#D"/><use transform="matrix(0.01953125,0,0,0.01953125,48.0078125,0)" xlink:href="#A"/><use transform="matrix(0.01953125,0,0,0.01953125,72.01171875,0)" xlink:href="#B"/><use transform="matrix(0.01953125,0,0,0.01953125,96.015625,0)" xlink:href="#v"/><use transform="matrix(0.01953125,0,0,0.01953125,120.01953125,0)" xlink:href="#G"/><use transform="matrix(0.01953125,0,0,0.01953125,144.0234375,0)" xlink:href="#D"/><use transform="matrix(0.01953125,0,0,0.01953125,168.02734375,0)" xlink:href="#H"/></g></defs></g></svg>